HIERARCHY
ROOT Hips
{
 OFFSET 0.000000 0.000000 0.000000
 CHANNELS 6 Xposition Yposition Zposition Yrotation Xrotation Zrotation
 JOINT Chest
 {
  OFFSET 0.000000 9.585900 0.002600
  CHANNELS 3 Yrotation Xrotation Zrotation
  JOINT Chest2
  {
   OFFSET 0.000000 9.601200 -0.005300
   CHANNELS 3 Yrotation Xrotation Zrotation
   JOINT Chest3
   {
    OFFSET 0.000000 9.561800 0.000000
    CHANNELS 3 Yrotation Xrotation Zrotation
    JOINT Chest4
    {
     OFFSET 0.000000 9.552100 0.000000
     CHANNELS 3 Yrotation Xrotation Zrotation
     JOINT Neck
     {
      OFFSET 0.000000 14.453000 0.000000
      CHANNELS 3 Yrotation Xrotation Zrotation
      JOINT Head
      {
       OFFSET 0.000000 8.936500 -0.011300
       CHANNELS 3 Yrotation Xrotation Zrotation
       End Site
       {
        OFFSET 0.000000 17.073600 -0.006000
       }
      }
     }
     JOINT RightCollar
     {
      OFFSET -2.921100 9.558500 0.000000
      CHANNELS 3 Yrotation Xrotation Zrotation
      JOINT RightShoulder
      {
       OFFSET -13.519700 0.000000 0.000000
       CHANNELS 3 Yrotation Xrotation Zrotation
       JOINT RightElbow
       {
        OFFSET 0.000000 -29.696600 0.000000
        CHANNELS 3 Yrotation Xrotation Zrotation
        JOINT RightWrist
        {
         OFFSET 0.000000 -24.004700 0.000000
         CHANNELS 3 Yrotation Xrotation Zrotation
         End Site
         {
          OFFSET 0.000000 -17.728500 0.000000
         }
        }
       }
      }
     }
     JOINT LeftCollar
     {
      OFFSET 2.921100 9.558500 0.000000
      CHANNELS 3 Yrotation Xrotation Zrotation
      JOINT LeftShoulder
      {
       OFFSET 13.519700 0.000000 0.000000
       CHANNELS 3 Yrotation Xrotation Zrotation
       JOINT LeftElbow
       {
        OFFSET 0.000000 -29.696600 0.000000
        CHANNELS 3 Yrotation Xrotation Zrotation
        JOINT LeftWrist
        {
         OFFSET 0.000000 -24.004700 0.000000
         CHANNELS 3 Yrotation Xrotation Zrotation
         End Site
         {
          OFFSET 0.000000 -17.728500 0.000000
         }
        }
       }
      }
     }
    }
   }
  }
 }
 JOINT RightHip
 {
  OFFSET -7.771700 -0.012900 -0.001300
  CHANNELS 3 Yrotation Xrotation Zrotation
  JOINT RightKnee
  {
   OFFSET 0.000000 -40.869800 0.001200
   CHANNELS 3 Yrotation Xrotation Zrotation
   JOINT RightAnkle
   {
    OFFSET 0.000000 -39.717900 0.002100
    CHANNELS 3 Yrotation Xrotation Zrotation
    JOINT RightToe
    {
     OFFSET 0.000000 -4.965400 11.033500
     CHANNELS 3 Yrotation Xrotation Zrotation
     End Site
     {
      OFFSET 0.000000 -1.423100 5.872300
     }
    }
   }
  }
 }
 JOINT LeftHip
 {
  OFFSET 7.771700 -0.012900 -0.001300
  CHANNELS 3 Yrotation Xrotation Zrotation
  JOINT LeftKnee
  {
   OFFSET 0.000000 -40.869800 0.001200
   CHANNELS 3 Yrotation Xrotation Zrotation
   JOINT LeftAnkle
   {
    OFFSET 0.000000 -39.717900 0.002100
    CHANNELS 3 Yrotation Xrotation Zrotation
    JOINT LeftToe
    {
     OFFSET 0.000000 -4.965400 11.033500
     CHANNELS 3 Yrotation Xrotation Zrotation
     End Site
     {
      OFFSET 0.000000 -1.423100 5.872300
     }
    }
   }
  }
 }
}
MOTION
Frames: 9
Frame Time: 0.008333
0.000000 85.388000 0.000000 0.000000 -5.767877 0.000000 0.000000 11.653817 0.000000 0.000000 -5.885947 0.000000 0.000000 -0.000000 0.000000 0.000000 -0.000000 0.000000 0.000000 12.528835 0.000000 0.000000 0.711642 0.000000 0.000000 -0.000000 0.000000 0.000000 0.000000 -90.000000 0.000000 -2.309062 0.000000 0.000000 2.309062 0.000000 0.000000 -0.000000 0.000000 0.000000 -0.000000 90.000000 0.000000 -2.309062 0.000000 0.000000 2.309062 0.000000 0.000000 8.520406 0.000000 0.000000 1.905762 0.000000 -0.000000 -4.658285 0.000000 0.000000 -0.000000 0.000000 0.000000 8.520406 0.000000 0.000000 1.905762 0.000000 -0.000000 -4.658285 0.000000 0.000000 -0.000000 0.000000
-14.132089 57.865729 67.044074 176.326711 -31.043410 -2.925946 3.023935 20.262133 5.967163 0.259147 2.667584 0.469227 0.435201 4.358511 0.773850 2.170383 17.502444 3.405570 -1.397453 14.644713 -3.844990 -1.167533 -8.578870 -6.681621 3.712793 -1.778453 -2.711732 6.465381 -13.417726 -8.907585 -128.367696 -86.591795 154.067474 14.918211 -15.896498 -53.588288 -4.236309 -3.548594 -1.135292 5.059006 -2.129020 -9.390171 7.549663 -82.440676 -40.032861 -1.700261 -12.344567 30.587399 9.146431 -40.150961 -3.394346 -6.711514 67.433481 -7.407631 4.443671 7.188884 9.402880 -0.878211 0.666516 -0.403729 -10.636474 -46.860892 6.181645 28.957290 61.533577 26.805221 -14.250622 36.649546 1.083741 0.652904 -17.695389 -6.578822
-14.103973 57.860798 67.051035 176.287673 -31.090095 -2.949381 3.062239 20.242820 6.033457 0.264888 2.699325 0.459379 0.439821 4.322001 0.789899 2.196161 17.493713 3.425256 -1.401787 14.674664 -3.854892 -1.193570 -8.526724 -6.699374 3.657960 -1.675161 -2.733549 6.097474 -13.238680 -8.203566 -137.344874 -86.722764 162.160117 14.981785 -15.850066 -53.961730 -4.189272 -3.359917 -1.098858 5.239142 -1.993504 -9.437719 7.400171 -82.472739 -39.842279 -1.636471 -12.442368 30.701327 9.157698 -40.110943 -3.319906 -6.774818 67.410848 -7.462205 4.478780 7.187026 9.424985 -0.912212 0.679825 -0.419094 -10.738455 -46.822450 6.164663 29.218271 61.437450 27.222694 -14.403099 36.744393 0.860280 0.720432 -17.759617 -6.620983
-14.073153 57.854269 67.060260 176.260135 -31.137536 -2.973233 3.084663 20.219773 6.092451 0.267054 2.680893 0.468189 0.446288 4.334411 0.787752 2.222414 17.483175 3.446102 -1.401662 14.705934 -3.862372 -1.218632 -8.466784 -6.719773 3.603975 -1.562655 -2.755617 5.703179 -13.054595 -7.473160 -148.288356 -86.735638 172.217339 14.969945 -15.815512 -54.223081 -4.154392 -3.149617 -1.068527 5.472854 -1.870589 -9.487792 7.346646 -82.533354 -39.747518 -1.561893 -12.545154 30.798546 9.165784 -40.068981 -3.246571 -6.854895 67.386979 -7.536339 4.506594 7.181017 9.447835 -0.942609 0.695641 -0.432233 -10.859482 -46.779075 6.154184 29.448305 61.347642 27.603922 -14.545780 36.808870 0.615592 0.791568 -17.799850 -6.649735
-14.039712 57.847010 67.070657 176.220914 -31.193038 -2.991376 3.114129 20.197340 6.152152 0.269441 2.660301 0.476558 0.453094 4.391497 0.770802 2.252379 17.425487 3.481318 -1.425361 14.772302 -3.886962 -1.141056 -8.437422 -6.708636 3.524199 -1.407756 -2.761734 5.318014 -12.907001 -6.777317 -158.982234 -86.581310 -177.948105 14.885091 -15.786219 -54.346446 -4.134660 -2.920584 -1.046610 5.749328 -1.759664 -9.535902 7.358204 -82.624901 -39.717679 -1.478699 -12.664120 30.871942 9.171084 -40.026301 -3.172760 -6.889252 67.368816 -7.563429 4.532613 7.189926 9.462221 -0.970974 0.696940 -0.444740 -10.982960 -46.727368 6.149073 29.649073 61.263002 27.949092 -14.639327 36.895471 0.419696 0.838810 -17.864934 -6.706231
-14.005633 57.838706 67.082830 176.175488 -31.250029 -3.002883 3.145116 20.169779 6.208221 0.272728 2.656164 0.478871 0.458187 4.363606 0.782014 2.276039 17.431574 3.495211 -1.448168 14.848040 -3.911078 -1.103474 -8.408675 -6.701440 3.381848 -1.190701 -2.743292 4.989515 -12.831816 -6.163210 -167.600371 -86.263956 -170.131487 14.734515 -15.716519 -54.287648 -4.129667 -2.678634 -1.033216 6.050275 -1.656963 -9.570547 7.302120 -82.761997 -39.615309 -1.377999 -12.808328 30.930320 9.226533 -39.981567 -3.116754 -6.961367 67.347949 -7.609552 4.535492 7.202803 9.477549 -0.987627 0.704939 -0.453390 -11.108158 -46.671581 6.142982 29.814636 61.183088 28.255923 -14.698693 36.980559 0.246507 0.853540 -17.935009 -6.768250
-13.974959 57.832556 67.091212 176.094393 -31.346130 -2.973394 3.199973 20.174889 6.240450 0.276015 2.651031 0.480829 0.463150 4.332457 0.793250 2.299455 17.437053 3.506936 -1.437354 14.896704 -3.907858 -1.119657 -8.338002 -6.718399 3.247260 -0.991462 -2.733735 4.659470 -12.765246 -5.616896 -173.665213 -85.831391 -164.791228 14.526257 -15.582295 -54.021169 -4.141960 -2.431964 -1.026106 6.363529 -1.560089 -9.577995 7.089035 -82.970778 -39.355640 -1.259636 -12.979050 31.012175 9.294416 -39.898627 -3.075377 -6.988824 67.332605 -7.627192 4.556340 7.205990 9.493851 -1.013592 0.715065 -0.465658 -11.180440 -46.577787 6.098298 29.949087 61.108864 28.526038 -14.742449 37.089922 0.070691 0.902261 -18.021149 -6.840718
-13.946295 57.823693 67.104477 176.032267 -31.420508 -2.948712 3.235887 20.154627 6.263342 0.279586 2.645922 0.482458 0.469005 4.324476 0.796024 2.326755 17.419174 3.524119 -1.383357 14.882545 -3.871953 -1.121952 -8.193866 -6.722563 3.113983 -0.805311 -2.728468 4.345772 -12.725987 -5.162858 -177.875591 -85.327520 -161.211754 14.283214 -15.418825 -53.588455 -4.176514 -2.195750 -1.020872 6.671879 -1.474468 -9.555698 6.804385 -83.267437 -39.023398 -1.151416 -13.145853 31.123639 9.354340 -39.836680 -3.049788 -7.015338 67.314854 -7.640100 4.575971 7.212552 9.510654 -1.030618 0.722887 -0.476366 -11.283418 -46.504029 6.059352 30.054466 61.038208 28.760026 -14.753874 37.182960 -0.100117 0.961901 -18.082144 -6.918775
-13.920105 57.813152 67.121127 176.003206 -31.484720 -2.936332 3.247377 20.123682 6.277474 0.283916 2.642136 0.483955 0.476140 4.318505 0.798653 2.358696 17.404679 3.540262 -1.361327 14.906546 -3.848414 -1.110041 -8.091443 -6.695618 2.962848 -0.630948 -2.716236 4.081070 -12.730912 -4.823397 178.884463 -84.777583 -158.502449 14.041567 -15.277347 -53.096357 -4.237698 -1.989354 -1.005854 6.953162 -1.410654 -9.516532 6.603778 -83.642326 -38.754979 -1.050254 -13.254848 31.119078 9.426482 -39.781436 -3.055639 -7.065342 67.299636 -7.649789 4.587485 7.215463 9.519662 -1.047862 0.738315 -0.483402 -11.428251 -46.440382 6.025783 30.142782 60.973048 28.969525 -14.744770 37.255632 -0.292098 0.968822 -18.130734 -6.954853
